<svg width="21" height="22" viewBox="0 0 21 22" fill="none" xmlns="http://www.w3.org/2000/svg">
<path d="M5.5 2.25C2.4825 3.97125 0.5 7.2775 0.5 11C0.5 12.9778 1.08649 14.9112 2.1853 16.5557C3.28412 18.2002 4.8459 19.4819 6.67316 20.2388C8.50043 20.9957 10.5111 21.1937 12.4509 20.8078C14.3907 20.422 16.1725 19.4696 17.5711 18.0711C18.9696 16.6725 19.922 14.8907 20.3078 12.9509C20.6937 11.0111 20.4957 9.00043 19.7388 7.17316C18.9819 5.3459 17.7002 3.78412 16.0557 2.6853C14.4112 1.58649 12.4778 1 10.5 1" stroke="black" stroke-linecap="round" stroke-linejoin="round"/>
<path d="M5.5 7.25V2.25H0.5" stroke="black" stroke-linecap="round" stroke-linejoin="round"/>
</svg>
